<?xml version="1.0" encoding="UTF-8"?>
<!DOCTYPE svg PUBLIC "-//W3C//DTD SVG 1.1//EN" "http://www.w3.org/Graphics/SVG/1.1/DTD/svg11.dtd">
<svg xmlns="http://www.w3.org/2000/svg" version="1.1" width="1967px" height="1697px" style="shape-rendering:geometricPrecision; text-rendering:geometricPrecision; image-rendering:optimizeQuality; fill-rule:evenodd; clip-rule:evenodd" xmlns:xlink="http://www.w3.org/1999/xlink">
<g><path style="opacity:0.997" fill="#7dcbec" d="M 1147.5,-0.5 C 1161.5,-0.5 1175.5,-0.5 1189.5,-0.5C 1238.01,5.95162 1282.68,22.785 1323.5,50C 1358.4,73.8873 1389.23,102.387 1416,135.5C 1443.72,171.55 1471.05,207.884 1498,244.5C 1513.64,265.219 1530.8,284.719 1549.5,303C 1563.63,314.568 1578.63,324.901 1594.5,334C 1629.97,351.56 1664.3,370.894 1697.5,392C 1742.45,424.276 1778.95,464.109 1807,511.5C 1851.98,598.833 1836.48,673.333 1760.5,735C 1709.09,771.676 1651.76,793.343 1588.5,800C 1551.79,804.816 1515.12,804.65 1478.5,799.5C 1496.38,667.005 1465.21,547.671 1385,441.5C 1336.96,385.455 1277.62,346.122 1207,323.5C 1125.46,297.149 1042.63,292.149 958.5,308.5C 946.277,255.645 948.11,203.312 964,151.5C 986.512,85.3224 1030.01,38.8224 1094.5,12C 1111.82,5.75133 1129.49,1.58467 1147.5,-0.5 Z"/></g>
<g><path style="opacity:0.998" fill="#a7dcf2" d="M 1478.5,799.5 C 1474.36,822.575 1469.02,845.408 1462.5,868C 1479.1,897.608 1501.1,922.608 1528.5,943C 1567.7,969.766 1610.04,990.433 1655.5,1005C 1687.19,1014.6 1719.19,1015.93 1751.5,1009C 1780.22,1000.28 1803.38,983.782 1821,959.5C 1834.75,939 1845.58,917 1853.5,893.5C 1873.32,886.314 1893.65,884.148 1914.5,887C 1930.17,890.682 1943.34,898.515 1954,910.5C 1958.42,916.068 1962.58,921.735 1966.5,927.5C 1966.5,929.833 1966.5,932.167 1966.5,934.5C 1947.42,986.004 1921.59,1033.67 1889,1077.5C 1805.38,1180.82 1698.21,1217.99 1567.5,1189C 1494.21,1172.19 1429.87,1138.86 1374.5,1089C 1360.97,1076.63 1347.97,1063.8 1335.5,1050.5C 1337.17,1040.67 1333.17,1036.84 1323.5,1039C 1289.36,1063.63 1251.69,1071.63 1210.5,1063C 1197.33,1058.75 1185.33,1052.42 1174.5,1044C 1166.29,1043.55 1163.13,1047.38 1165,1055.5C 1181.75,1070.95 1201.58,1080.12 1224.5,1083C 1263.96,1085.64 1299.96,1075.8 1332.5,1053.5C 1304.86,1100.08 1285.86,1150.08 1275.5,1203.5C 1268.2,1235.28 1264.03,1267.61 1263,1300.5C 1260.68,1363.76 1263.68,1426.76 1272,1489.5C 1277,1525.12 1281.66,1560.79 1286,1596.5C 1287.22,1612.14 1287.72,1627.81 1287.5,1643.5C 1286.93,1651.74 1283.59,1658.57 1277.5,1664C 1267.39,1670.88 1256.39,1675.88 1244.5,1679C 1204.63,1689 1164.3,1694.84 1123.5,1696.5C 1098.83,1696.5 1074.17,1696.5 1049.5,1696.5C 1017.23,1694.96 985.228,1690.46 953.5,1683C 938.727,1679.45 925.06,1673.45 912.5,1665C 903.33,1658.16 898.83,1648.99 899,1637.5C 896.152,1613.53 895.819,1589.53 898,1565.5C 907.776,1526.8 909.109,1487.8 902,1448.5C 899.927,1434.13 897.094,1419.97 893.5,1406C 888.448,1403.57 883.115,1402.4 877.5,1402.5C 860.236,1405.65 842.902,1408.49 825.5,1411C 773.825,1415.44 722.159,1415.27 670.5,1410.5C 652.637,1409.71 634.97,1407.21 617.5,1403C 597.16,1394 576.493,1385.83 555.5,1378.5C 557.607,1462.85 552.774,1546.85 541,1630.5C 538.356,1649.68 533.689,1668.35 527,1686.5C 525.404,1689.37 523.57,1692.04 521.5,1694.5C 458.858,1696.37 396.191,1695.54 333.5,1692C 294.59,1689.63 256.256,1683.63 218.5,1674C 194.91,1668.04 173.576,1657.71 154.5,1643C 147.18,1636.19 142.013,1628.03 139,1618.5C 139.104,1603.41 141.771,1588.74 147,1574.5C 166.074,1520.28 183.741,1465.61 200,1410.5C 231.277,1299.67 244.11,1186.84 238.5,1072C 238.888,1023.38 249.222,977.052 269.5,933C 259.591,923.88 247.924,918.213 234.5,916C 195.018,910.468 157.018,915.801 120.5,932C 81.7243,949.376 47.0577,972.709 16.5,1002C 10.302,1005.75 4.63535,1005.25 -0.5,1000.5C -0.5,997.167 -0.5,993.833 -0.5,990.5C 4.49599,982.322 10.496,974.822 17.5,968C 50.3523,937.809 86.019,911.475 124.5,889C 159.803,869.454 197.47,857.121 237.5,852C 267.683,849.751 297.683,851.251 327.5,856.5C 346.226,887.605 364.726,918.939 383,950.5C 392.75,968.089 400.75,986.422 407,1005.5C 409.402,1016.38 411.069,1027.38 412,1038.5C 410.907,1078.15 410.573,1117.82 411,1157.5C 415.734,1214.4 435.734,1265.07 471,1309.5C 509.034,1351.85 556.534,1370.02 613.5,1364C 655.161,1359.56 694.161,1346.89 730.5,1326C 816.432,1275.4 884.265,1206.9 934,1120.5C 938.652,1112.86 942.486,1104.86 945.5,1096.5C 903.627,1094.95 863.96,1084.78 826.5,1066C 722.194,1014.34 656.361,931.845 629,818.5C 621.947,782.46 616.947,746.127 614,709.5C 608.113,637.235 624.447,570.569 663,509.5C 669.945,498.889 677.278,488.556 685,478.5C 697.692,463.646 710.525,448.979 723.5,434.5C 788.691,368.727 867.024,326.727 958.5,308.5C 1042.63,292.149 1125.46,297.149 1207,323.5C 1277.62,346.122 1336.96,385.455 1385,441.5C 1465.21,547.671 1496.38,667.005 1478.5,799.5 Z"/></g>
<g><path style="opacity:0.999" fill="#7dcbec" d="M 723.5,434.5 C 710.525,448.979 697.692,463.646 685,478.5C 677.278,488.556 669.945,498.889 663,509.5C 624.447,570.569 608.113,637.235 614,709.5C 616.947,746.127 621.947,782.46 629,818.5C 656.361,931.845 722.194,1014.34 826.5,1066C 863.96,1084.78 903.627,1094.95 945.5,1096.5C 942.486,1104.86 938.652,1112.86 934,1120.5C 884.265,1206.9 816.432,1275.4 730.5,1326C 694.161,1346.89 655.161,1359.56 613.5,1364C 556.534,1370.02 509.034,1351.85 471,1309.5C 435.734,1265.07 415.734,1214.4 411,1157.5C 410.573,1117.82 410.907,1078.15 412,1038.5C 411.069,1027.38 409.402,1016.38 407,1005.5C 400.75,986.422 392.75,968.089 383,950.5C 364.726,918.939 346.226,887.605 327.5,856.5C 311.093,829.126 298.26,800.126 289,769.5C 263.284,662.821 289.784,571.654 368.5,496C 443.082,432.918 529.416,404.585 627.5,411C 660.691,414.131 692.691,421.965 723.5,434.5 Z"/></g>
<g><path style="opacity:1" fill="#232021" d="M 1382.5,624.5 C 1406.14,624.973 1416.97,636.973 1415,660.5C 1409.46,675.684 1398.63,682.184 1382.5,680C 1362.73,671.617 1356.89,657.45 1365,637.5C 1369.58,631.41 1375.41,627.077 1382.5,624.5 Z"/></g>
<g><path style="opacity:1" fill="#232021" d="M 1002.5,902.5 C 1027.84,900.675 1039.67,912.342 1038,937.5C 1032.23,953.137 1021.07,959.637 1004.5,957C 985.461,948.231 979.961,934.065 988,914.5C 992.099,909.563 996.933,905.563 1002.5,902.5 Z"/></g>
<g><path style="opacity:0.999" fill="#242122" d="M 1335.5,1050.5 C 1334.83,1051.83 1333.83,1052.83 1332.5,1053.5C 1299.96,1075.8 1263.96,1085.64 1224.5,1083C 1201.58,1080.12 1181.75,1070.95 1165,1055.5C 1163.13,1047.38 1166.29,1043.55 1174.5,1044C 1185.33,1052.42 1197.33,1058.75 1210.5,1063C 1251.69,1071.63 1289.36,1063.63 1323.5,1039C 1333.17,1036.84 1337.17,1040.67 1335.5,1050.5 Z"/></g>
<g><path style="opacity:0.993" fill="#98d2eb" d="M 1275.5,1203.5 C 1281.93,1241.61 1293.09,1278.28 1309,1313.5C 1335.51,1369.52 1364.84,1423.86 1397,1476.5C 1410.21,1499.25 1421.54,1522.92 1431,1547.5C 1434.2,1557.95 1435.2,1568.62 1434,1579.5C 1432.37,1585.93 1428.87,1591.1 1423.5,1595C 1381.41,1619.98 1336.07,1636.14 1287.5,1643.5C 1287.72,1627.81 1287.22,1612.14 1286,1596.5C 1281.66,1560.79 1277,1525.12 1272,1489.5C 1263.68,1426.76 1260.68,1363.76 1263,1300.5C 1264.03,1267.61 1268.2,1235.28 1275.5,1203.5 Z"/></g>
<g><path style="opacity:0.995" fill="#98d3eb" d="M 670.5,1410.5 C 687.772,1463.48 703.939,1516.82 719,1570.5C 724.047,1590.4 727.547,1610.57 729.5,1631C 728.714,1640.91 724.714,1649.24 717.5,1656C 697.471,1670.69 675.137,1680.35 650.5,1685C 607.911,1693.85 564.911,1697.01 521.5,1694.5C 523.57,1692.04 525.404,1689.37 527,1686.5C 533.689,1668.35 538.356,1649.68 541,1630.5C 552.774,1546.85 557.607,1462.85 555.5,1378.5C 576.493,1385.83 597.16,1394 617.5,1403C 634.97,1407.21 652.637,1409.71 670.5,1410.5 Z"/></g>
</svg>
